PathFileType	4	(X/Y/Z)	Patient4_TMGait_0pt4_01_right_02.trc.trc
DataRate	CameraRate	NumFrames	NumMarkers	Units	OrigDataRate	OrigDataStartFrame	OrigNumFrames
72.164948453608	72.164948453608	5	33	mm	72.164948453608	71	       141
Frame#	Time	Sacral			L.Shoulder			Chest			R.Shoulder			Neck			R.ASIS			L.ASIS			R.Thigh.Superior			R.Thigh.Lateral			R.Thigh.Inferior			R.Patella			L.Thigh.Superior			L.Thigh.Lateral			L.Thigh.Inferior			L.Patella			L.Shank.Superior			L.Shank.Lateral			L.Shank.Inferior			R.Shank.Superior			R.Shank.Lateral			R.Shank.Inferior			R.Heel			R.Midfoot.Superior			R.Midfoot.Lateral			R.Toe			L.Heel			L.Midfoot.Lateral			L.Midfoot.Superior			L.Toe			L.Elbow			L.Wrist			R.Elbow			R.Wrist			
		X1	Y1	Z1	X2	Y2	Z2	X3	Y3	Z3	X4	Y4	Z4	X5	Y5	Z5	X6	Y6	Z6	X7	Y7	Z7	X8	Y8	Z8	X9	Y9	Z9	X10	Y10	Z10	X11	Y11	Z11	X12	Y12	Z12	X13	Y13	Z13	X14	Y14	Z14	X15	Y15	Z15	X16	Y16	Z16	X17	Y17	Z17	X18	Y18	Z18	X19	Y19	Z19	X20	Y20	Z20	X21	Y21	Z21	X22	Y22	Z22	X23	Y23	Z23	X24	Y24	Z24	X25	Y25	Z25	X26	Y26	Z26	X27	Y27	Z27	X28	Y28	Z28	X29	Y29	Z29	X30	Y30	Z30	X31	Y31	Z31	X32	Y32	Z32	X33	Y33	Z33	

71	3.040000000000	878.093105193609	998.993447107028	550.689232761700	1018.229202443238	1432.332124837789	349.795962398255	1145.076425340111	1363.720029478031	491.618580575752	1090.414798844286	1437.341532278721	676.893465005529	1045.485379433767	1495.027480040268	504.259704367760	1121.591347007516	940.506569030101	636.711737648230	1072.830268143510	961.704626255773	365.152733758972	1128.830135375311	730.376487901472	604.841973406274	1035.186461483894	628.568944912428	671.427069342039	1093.696422326008	568.647344879091	585.786922408865	1078.416476341713	481.877463764078	589.413568121919	1147.292519069789	769.051525929092	387.945849782809	1082.370636715265	640.831239118048	320.107135865761	1186.972545825518	578.588918284302	372.652651459650	1202.844433599377	510.715345702267	373.287096136391	1185.021949352349	438.070065078373	362.106855891496	1109.339830379367	313.249962652724	312.803884960530	1190.404953741490	207.849579764366	364.032277998759	1041.420245731187	396.213587742939	596.305656260118	963.820411562337	299.828052607101	663.972026504722	987.609881175448	202.903990739131	593.486944292562	835.276365037507	44.704662611705	572.613795962017	1010.846356417070	96.897167976015	593.287576670263	925.160739795227	37.065409768058	639.154818178085	1131.717249531296	41.263707199944	608.465414649950	1092.702480216960	42.702223442041	406.635419938921	1161.590789137103	39.669982825960	322.360131826508	1244.279585741927	104.116107982770	340.955403418667	1370.711125393567	56.677273792172	305.778209302818	914.339728524234	1089.225667472398	259.508568022301	933.349888193544	831.432584047722	232.174134425240	1196.761397157787	1102.790247179352	780.413830906780	1420.889550492749	1021.876426684792	685.503033282689	
72	3.053857142857	879.251729008725	997.813456693469	548.231200575216	1017.477816153882	1431.583248050310	347.873560433660	1144.319059869709	1363.783675894730	490.103069116196	1088.538349245459	1437.070628400982	675.201263538867	1044.343005165100	1494.604142208594	502.350290363348	1122.573425944175	940.209237160626	635.606826351688	1075.009675825900	961.022822888504	363.945611775924	1129.581005035077	729.719421835808	604.241913340713	1034.855999513962	628.234940057506	670.292941823759	1093.592453494309	567.833942679564	585.197391809927	1077.593226724158	480.667507063985	588.666261415216	1149.162759234486	767.022396930307	387.345979604091	1082.952400783584	639.370934011039	319.999796688891	1186.765963821339	576.488354223624	373.222116226610	1201.311105778967	507.851786008936	374.196186118737	1182.837133656105	435.149057075812	362.904995415086	1105.472216298547	311.334328707914	313.565803294360	1184.342306221952	204.782511614887	365.701084789214	1039.554069551436	395.416814041991	595.712027691698	960.690046321378	300.125411224102	663.443666151824	983.524694698065	202.709250856809	593.364297624792	829.835592719267	45.336351372694	572.839770216197	1005.529708847698	96.934638329347	593.461910205701	919.711712165253	37.194908226223	639.256621038614	1126.201367763142	41.022328975999	608.574516193671	1083.568876318642	41.061148349777	407.955767441417	1152.373471162133	38.166362289376	323.507399773332	1235.864278750171	101.297460152302	343.014174990406	1362.007848013474	52.624524749030	307.178688381283	915.755348133721	1088.015620912296	256.751385839733	937.574012285375	830.257335249764	229.795273369278	1193.846587696380	1101.922854631435	779.020299078263	1417.284999814952	1017.557132330334	684.838770431180	
73	3.067714285714	880.298571476773	996.892752273102	545.783060153089	1016.968690558143	1430.873382111823	345.739524257243	1143.770435873579	1363.887978106021	488.414769521062	1086.958209513897	1437.021846972328	673.284348357294	1043.465671080241	1494.299613160722	500.174290181893	1123.457978957891	939.935261705550	634.331332727895	1076.926787141338	960.591851046097	362.639695075538	1130.338828696998	729.161832074433	603.389946732434	1034.722587241527	627.984501442077	669.015786733423	1093.692213327409	567.115042253249	584.419546074338	1077.071058753055	479.490358220234	587.824878759245	1150.675259814159	765.215730331469	386.777371017087	1083.581280081100	638.378324881581	319.454980866193	1186.360556567630	574.755838977391	373.755306866386	1199.785052870969	505.509161013561	374.815833617746	1180.751309631714	432.800926568203	363.330039770802	1102.112634923776	309.875753053254	313.735709601359	1178.903070431995	202.393273303688	366.892121281261	1037.900293165432	394.701277133820	595.050467978589	957.731145049918	300.585437003124	662.888219542829	979.553721948972	202.647147661036	593.258754213990	824.448279086959	46.255623763575	573.120582314996	1000.275105349603	96.988821406854	593.616645577127	914.305677718685	37.437448562680	639.372487084917	1120.706954313449	40.739627018485	608.677779021652	1075.444993498892	39.752885620607	408.665749356927	1144.317584239393	37.107321773489	324.176073453734	1228.290133179446	99.295698781598	344.578447990874	1354.329917299191	49.845164479937	308.405236072419	917.609626312177	1086.750043866392	253.790362618715	942.481826877764	829.078043841598	227.193478435015	1190.251024148763	1101.111521721512	777.888761720390	1412.807194771802	1012.313113397161	685.009415420801	
74	3.081571428571	881.194753159620	996.289401428560	543.365062286129	1016.716505425436	1430.258434121751	343.423754793337	1143.448037467906	1364.048155980858	486.555726640320	1085.747558147640	1437.224745969927	671.154664959972	1042.884141111183	1494.142411738593	497.766508019655	1124.199031817527	939.719579599731	632.855667313850	1078.503307111967	960.440836021104	361.188409715403	1131.028213280740	728.747288733659	602.267247645018	1034.759947420709	627.849628097752	667.614915568545	1093.976889398757	566.528551474359	583.473264363017	1076.869588365185	478.372109640825	586.951306122213	1151.804799772805	763.786425760639	386.154353062769	1084.266923978644	637.874366547795	318.483437828457	1185.848537588946	573.482642865928	374.117023752838	1198.340233071968	503.749070703583	375.081697164082	1178.826978256558	431.052883123923	363.379952536223	1099.263737663560	308.909932805552	313.364185455530	1174.081212841956	200.696389881514	367.632848143266	1036.462140278744	394.097730173006	594.361841952289	954.936314031947	301.239992914133	662.325145729076	975.705310381149	202.753232128219	593.197200087939	819.122612049536	47.512847208389	573.455151103824	995.089702150575	97.062379690263	593.739404272898	908.944414964718	37.819276787872	639.501991914222	1115.234591794641	40.417919537846	608.773216866249	1068.309308439754	38.815676252197	408.892571112919	1137.339136170471	36.458832016896	324.449315011810	1221.533161060588	98.051129347042	345.639392317837	1347.598795788010	48.202255683054	309.365883168814	919.865025440595	1085.506793240993	250.675896111415	948.035826947831	827.987334895973	224.409885253915	1186.015032301568	1100.412335686132	777.001560448669	1407.423496248980	1006.179697939612	686.028423216604	
75	3.095428571429	881.916600574930	996.029297943339	540.973878089875	1016.721059004358	1429.780744090511	340.957544363060	1143.354827996129	1364.266818858332	484.530349016514	1084.949015842263	1437.679901104023	668.830226789550	1042.607691344133	1494.142785186934	495.168135251744	1124.762988042461	939.590422673589	631.157091621572	1079.701289253366	960.566194780539	359.543660248617	1131.590866196494	728.507319745947	600.879276488716	1034.940081933753	627.849865360783	666.115281686248	1094.434282217778	566.101584176819	582.391198389686	1077.006894046395	477.328941310720	586.114032806802	1152.570588946996	762.837932377069	385.380734721956	1084.987139426681	637.819380001114	317.139646679128	1185.292598838729	572.673382646177	374.185624044705	1196.999785294933	502.545515586599	374.976015481479	1177.065551978789	429.855055656966	363.098397321479	1096.833528532267	308.406241294361	312.567128738089	1169.775796973275	199.624694315553	368.001198310466	1035.245918384009	393.624822355115	593.689775182556	952.298737239010	302.108702131044	661.770564459992	971.987642061815	203.050741153353	593.202579720494	813.863945252083	49.140418310907	573.835815146913	989.978269496514	97.157887181866	593.819334605823	903.627228401187	38.360237013060	639.643570707420	1109.783198098061	40.064596788331	608.859493705305	1062.015532689423	38.232947148024	408.780130233880	1131.237851475004	36.149229897507	324.431692447972	1215.465524998927	97.435086026808	346.250101477286	1341.632524700390	47.471820494491	310.027076517849	922.465744644531	1084.353925786613	247.451693159316	954.209505191094	827.070920676236	221.488057673387	1181.189429760134	1099.867419009627	776.336161165418	1401.102818077575	999.207483314040	687.897522140642	
